<svg width="100" height="84" viewBox="0 0 100 84" fill="none" xmlns="http://www.w3.org/2000/svg">
<rect x="1" y="1" width="98" height="17" rx="8.5" fill="white"/>
<rect x="1" y="34" width="97" height="16" rx="8" fill="white"/>
<rect x="1" y="68" width="98" height="14" rx="6" fill="white"/>
<path d="M90.5405 65.0323H9.45946C4.24324 65.0323 0 69.2865 0 74.5161C0 79.7458 4.24324 84 9.45946 84H90.5405C95.7568 84 100 79.7458 100 74.5161C100 69.2865 95.7568 65.0323 90.5405 65.0323ZM97.2973 74.5161C97.2973 78.2555 94.2703 81.2903 90.5405 81.2903H9.45946C5.72973 81.2903 2.7027 78.2555 2.7027 74.5161C2.7027 70.7768 5.72973 67.7419 9.45946 67.7419H90.5405C94.2703 67.7419 97.2973 70.7768 97.2973 74.5161ZM90.5405 0H9.45946C4.24324 0 0 4.25419 0 9.48387C0 14.7135 4.24324 18.9677 9.45946 18.9677H90.5405C95.7568 18.9677 100 14.7135 100 9.48387C100 4.25419 95.7568 0 90.5405 0ZM97.2973 9.48387C97.2973 13.2232 94.2703 16.2581 90.5405 16.2581H9.45946C5.72973 16.2581 2.7027 13.2232 2.7027 9.48387C2.7027 5.74452 5.72973 2.70968 9.45946 2.70968H90.5405C94.2703 2.70968 97.2973 5.74452 97.2973 9.48387ZM90.5405 32.5161H9.45946C4.24324 32.5161 0 36.7703 0 42C0 47.2297 4.24324 51.4839 9.45946 51.4839H90.5405C95.7568 51.4839 100 47.2297 100 42C100 36.7703 95.7568 32.5161 90.5405 32.5161ZM97.2973 42C97.2973 45.7394 94.2703 48.7742 90.5405 48.7742H9.45946C5.72973 48.7742 2.7027 45.7394 2.7027 42C2.7027 38.2606 5.72973 35.2258 9.45946 35.2258H90.5405C94.2703 35.2258 97.2973 38.2606 97.2973 42Z" fill="black"/>
</svg>
