<svg width="230" height="51" viewBox="0 0 230 51" fill="none" xmlns="http://www.w3.org/2000/svg">
<path d="M43.4969 12.3901C43.1269 12.6601 42.7269 12.8901 42.3969 13.2101C35.3569 19.9401 28.3169 26.6601 21.3069 33.4201C20.2669 34.4201 19.3869 35.5801 18.4669 36.7001C18.0169 37.2501 17.8869 37.9101 17.8969 38.6301C17.9769 41.6001 19.1069 44.1201 21.0969 46.2701C22.6169 47.9201 24.4369 49.1601 26.3969 50.2101C26.7269 50.3901 27.0669 50.5601 27.3569 50.9201C26.4269 50.7801 25.4969 50.6601 24.5669 50.5101C20.4969 49.8301 16.5069 48.8901 12.6769 47.3101C9.83691 46.1401 7.18691 44.6501 4.94691 42.5101C2.61691 40.3001 1.00691 37.6601 0.276911 34.5101C-0.303089 32.0001 0.0569116 29.5701 1.08691 27.2301C2.11691 24.8901 3.56691 22.8301 5.32691 21.0101C7.76691 18.4901 10.3169 16.0701 12.8269 13.6101C12.9369 13.5001 13.0669 13.4101 13.1669 13.3001C15.8569 10.2601 19.3969 9.22012 23.2769 8.94012C28.9269 8.53012 34.4469 9.43012 39.9169 10.6801C40.6969 10.8601 41.4769 11.0401 42.2369 11.2901C42.6369 11.4201 42.9869 11.7101 43.3669 11.9201L43.4769 12.3801L43.4969 12.3901Z" fill="white"/>
<path d="M21.7563 38.77C22.1363 38.34 22.2863 38.14 22.4763 37.96C28.6463 32.04 34.8263 26.14 40.9963 20.21C42.5663 18.7 44.0763 17.14 45.6263 15.62C47.2963 13.98 47.5763 12.03 47.0563 9.82C46.3963 7.02 44.8563 4.79 42.6863 3C41.4363 1.97 40.0463 1.1 38.4863 0C41.0863 0.53 43.4663 0.95 45.8163 1.52C49.4263 2.38 52.9063 3.59 56.1163 5.5C59.5463 7.54 62.2863 10.22 63.8263 13.99C65.2863 17.55 65.0263 21 63.2663 24.38C62.3263 26.19 61.1863 27.88 59.7563 29.32C56.6163 32.49 53.4263 35.62 50.1763 38.68C48.5463 40.21 46.4363 40.85 44.2763 41.24C40.7563 41.89 37.2363 41.74 33.6963 41.34C30.2463 40.94 26.8563 40.29 23.4963 39.42C22.9663 39.28 22.4563 39.05 21.7363 38.79L21.7563 38.77Z" fill="#D12A29"/>
<path d="M215.347 21.03L218.697 30.58H211.257L208.577 22.37H206.197L204.747 30.58H197.307L201.917 4.45996H212.327C215.047 4.45996 217.197 5.35996 218.837 7.17996C220.477 8.96996 221.027 11.25 220.547 14.01C219.987 17.18 218.277 19.53 215.337 21.03H215.347ZM208.127 11.33L207.267 16.18H210.317C211.767 16.22 212.847 15.32 213.107 13.79C213.367 12.26 212.587 11.33 211.097 11.33H208.117H208.127Z" fill="white"/>
<path d="M91.9767 4.5H99.4167L94.8367 30.62H87.3967L89.0667 20.99H82.7467L81.0767 30.62H73.6367L78.2167 4.5H85.6567L84.0167 13.76H90.3367L91.9767 4.5Z" fill="white"/>
<path d="M118.866 11.2898H109.386L108.906 14.1298H117.456L116.266 20.8498H107.716L107.196 23.7598H116.866L115.676 30.6298H98.5664L103.146 4.50977H120.066L118.876 11.2998L118.866 11.2898Z" fill="white"/>
<path d="M127.346 23.38H135.896L134.636 30.62H118.646L123.226 4.5H130.666L127.356 23.38H127.346Z" fill="white"/>
<path d="M145.577 23.38H154.127L152.867 30.62H136.877L141.457 4.5H148.897L145.587 23.38H145.577Z" fill="white"/>
<path d="M169.898 4.5C172.428 4.5 174.468 5.4 176.068 7.19C177.668 8.94 178.258 11.3 177.858 14.24C177.448 16.96 176.298 19.17 174.328 20.81C172.398 22.41 169.898 23.24 166.818 23.24H163.838L162.538 30.63H155.098L159.678 4.51H169.908L169.898 4.5ZM168.638 11.74H165.848L165.108 15.99H168.088C169.238 15.99 170.318 15.17 170.508 13.86C170.768 12.48 169.798 11.73 168.648 11.73L168.638 11.74Z" fill="white"/>
<path d="M197.527 11.2898H188.047L187.567 14.1298H196.117L194.927 20.8498H186.377L185.857 23.7598H195.527L194.337 30.6298H177.227L181.807 4.50977H198.727L197.537 11.2998L197.527 11.2898Z" fill="white"/>
<path d="M225.897 7.35C223.857 7.35 222.227 5.7 222.227 3.65C222.237 1.65 223.897 0 225.917 0C227.957 0 229.597 1.65 229.587 3.7C229.587 5.73 227.947 7.36 225.907 7.35H225.897ZM222.837 3.67C222.837 5.36 224.217 6.75 225.897 6.75C227.597 6.75 228.977 5.36 228.977 3.66C228.977 1.98 227.577 0.6 225.887 0.61C224.207 0.61 222.827 1.99 222.837 3.67Z" fill="white"/>
<path d="M226.786 3.77976C227.386 4.23976 227.466 4.92976 227.596 5.59976C227.616 5.69976 227.586 5.72976 227.486 5.73976C227.066 5.76976 227.066 5.76976 226.976 5.36976C226.916 5.08976 226.846 4.80976 226.716 4.54976C226.526 4.17976 226.246 3.93976 225.806 3.96976C225.606 3.97976 225.346 3.87976 225.216 4.01976C225.096 4.13976 225.186 4.39976 225.186 4.58976C225.186 4.89976 225.186 5.20976 225.186 5.51976C225.186 5.67976 225.156 5.74976 224.976 5.73976C224.506 5.71976 224.606 5.77976 224.596 5.36976C224.596 4.22976 224.596 3.08976 224.596 1.94976C224.596 1.77976 224.646 1.70976 224.816 1.69976C225.446 1.62976 226.076 1.54976 226.696 1.76976C227.276 1.97976 227.536 2.37976 227.466 2.94976C227.436 3.22976 227.296 3.44976 227.076 3.60976C226.996 3.66976 226.896 3.72976 226.806 3.78976L226.786 3.77976ZM225.176 2.80976C225.176 2.99976 225.176 3.18976 225.176 3.37976C225.176 3.44976 225.176 3.51976 225.276 3.51976C225.666 3.51976 226.066 3.55976 226.446 3.43976C226.756 3.33976 226.916 3.11976 226.906 2.78976C226.906 2.48976 226.736 2.27976 226.426 2.17976C226.056 2.05976 225.676 2.07976 225.306 2.09976C225.196 2.09976 225.166 2.15976 225.176 2.25976C225.176 2.43976 225.176 2.61976 225.176 2.79976V2.80976Z" fill="white"/>
<path d="M76.9565 48.1904L73.6465 38.6504H75.3665L77.8965 46.2904L80.4465 38.6504H82.1465L78.8365 48.1904H76.9565Z" fill="white"/>
<path d="M87.6469 41.3804H89.117V48.1904H87.6469V47.2104C87.0869 47.9904 86.297 48.3704 85.267 48.3704C84.327 48.3704 83.537 48.0304 82.867 47.3304C82.197 46.6404 81.877 45.7804 81.877 44.7804C81.877 43.7804 82.207 42.9304 82.867 42.2304C83.537 41.5404 84.327 41.1904 85.267 41.1904C86.307 41.1904 87.0969 41.5704 87.6469 42.3304V41.3604V41.3804ZM85.497 46.9704C86.107 46.9704 86.6269 46.7704 87.0369 46.3604C87.4469 45.9404 87.6469 45.4204 87.6469 44.7904C87.6469 44.1604 87.4469 43.6504 87.0369 43.2404C86.6269 42.8204 86.107 42.6104 85.497 42.6104C84.887 42.6104 84.367 42.8104 83.957 43.2404C83.547 43.6504 83.347 44.1704 83.347 44.7904C83.347 45.4104 83.547 45.9304 83.957 46.3604C84.367 46.7704 84.887 46.9704 85.497 46.9704Z" fill="white"/>
<path d="M90.8359 48.1902V38.2402H92.3059V48.1902H90.8359Z" fill="white"/>
<path d="M98.6069 41.3804H100.077V48.1904H98.6069V47.3204C98.1569 48.0104 97.467 48.3704 96.497 48.3704C94.927 48.3704 93.877 47.3104 93.877 45.5604V41.3804H95.347V45.4104C95.347 46.4304 95.937 46.9904 96.877 46.9904C97.917 46.9904 98.6069 46.3504 98.6069 45.0304V41.3804Z" fill="white"/>
<path d="M102.946 45.4102C103.166 46.4502 103.996 47.0202 105.126 47.0202C105.906 47.0202 106.486 46.7302 106.886 46.1802L108.096 46.8902C107.426 47.8802 106.436 48.3802 105.116 48.3802C104.016 48.3802 103.116 48.0402 102.436 47.3702C101.756 46.6902 101.416 45.8302 101.416 44.7902C101.416 43.7502 101.756 42.9202 102.426 42.2402C103.096 41.5502 103.966 41.2002 105.016 41.2002C106.006 41.2002 106.826 41.5502 107.466 42.2502C108.106 42.9402 108.436 43.8002 108.436 44.8002C108.436 44.9502 108.426 45.1502 108.386 45.4102H102.966H102.946ZM106.936 44.2102C106.736 43.1102 105.956 42.5302 104.986 42.5302C103.896 42.5302 103.136 43.1702 102.926 44.2102H106.936Z" fill="white"/>
<path d="M113.197 40.0801C112.827 39.7001 112.827 39.1301 113.197 38.7601C113.567 38.3801 114.167 38.3801 114.537 38.7601C114.907 39.1301 114.907 39.7001 114.527 40.0801C114.147 40.4601 113.587 40.4501 113.207 40.0801H113.197ZM113.127 48.1901V41.3801H114.597V48.1901H113.127Z" fill="white"/>
<path d="M122.497 44.0102V48.1902H121.027V44.1602C121.027 43.1402 120.437 42.5802 119.497 42.5802C118.457 42.5802 117.767 43.2202 117.767 44.5402V48.1902H116.297V41.3802H117.767V42.2502C118.217 41.5502 118.907 41.2002 119.877 41.2002C121.447 41.2002 122.497 42.2602 122.497 44.0102Z" fill="white"/>
<path d="M129.146 46.6904H133.366V48.1904H127.576V38.6504H133.296V40.1504H129.136V42.6304H132.956V44.1204H129.136V46.7004L129.146 46.6904Z" fill="white"/>
<path d="M139.326 41.3804H140.936L138.276 48.1904H136.576L133.916 41.3804H135.526L137.436 46.5604L139.326 41.3804Z" fill="white"/>
<path d="M142.747 45.4102C142.967 46.4502 143.797 47.0202 144.927 47.0202C145.707 47.0202 146.287 46.7302 146.687 46.1802L147.897 46.8902C147.227 47.8802 146.237 48.3802 144.917 48.3802C143.817 48.3802 142.917 48.0402 142.237 47.3702C141.557 46.6902 141.217 45.8302 141.217 44.7902C141.217 43.7502 141.557 42.9202 142.227 42.2402C142.897 41.5502 143.767 41.2002 144.817 41.2002C145.807 41.2002 146.627 41.5502 147.267 42.2502C147.907 42.9402 148.237 43.8002 148.237 44.8002C148.237 44.9502 148.227 45.1502 148.187 45.4102H142.767H142.747ZM146.737 44.2102C146.537 43.1102 145.757 42.5302 144.787 42.5302C143.697 42.5302 142.937 43.1702 142.727 44.2102H146.737Z" fill="white"/>
<path d="M150.986 42.52C151.356 41.68 152.066 41.25 153.086 41.25V42.84C152.526 42.8 152.036 42.94 151.616 43.25C151.196 43.55 150.986 44.05 150.986 44.75V48.18H149.516V41.37H150.986V42.51V42.52Z" fill="white"/>
<path d="M158.906 41.3801H160.476L157.856 48.4101C157.206 50.1701 156.096 51.0101 154.526 50.9201V49.5401C155.456 49.5901 155.966 49.1501 156.336 48.2001L156.406 48.0601L153.516 41.3701H155.126L157.156 46.3201L158.896 41.3701L158.906 41.3801Z" fill="white"/>
<path d="M164.396 46.0302L165.746 45.2402C166.126 46.3202 166.916 46.8502 168.116 46.8502C169.316 46.8502 169.886 46.3502 169.886 45.6002C169.886 45.2102 169.726 44.9202 169.406 44.7102C169.086 44.5002 168.516 44.2702 167.716 44.0302C166.806 43.7602 166.356 43.5802 165.716 43.1602C165.106 42.7202 164.786 42.1002 164.786 41.2402C164.786 40.3802 165.086 39.7302 165.686 39.2402C166.286 38.7402 167.006 38.4902 167.856 38.4902C169.386 38.4902 170.566 39.2802 171.186 40.5902L169.866 41.3502C169.466 40.4602 168.806 40.0102 167.866 40.0102C166.926 40.0102 166.366 40.4702 166.366 41.2002C166.366 41.9302 166.826 42.2402 168.286 42.6902C168.656 42.8102 168.916 42.8902 169.076 42.9602C169.256 43.0102 169.486 43.1102 169.786 43.2302C170.096 43.3502 170.336 43.4902 170.476 43.6102C170.976 44.0102 171.526 44.6602 171.456 45.5702C171.456 46.4302 171.146 47.1202 170.516 47.6302C169.906 48.1302 169.086 48.3802 168.076 48.3802C166.236 48.3802 164.906 47.4902 164.396 46.0402V46.0302Z" fill="white"/>
<path d="M173.566 47.3304C172.876 46.6404 172.516 45.7904 172.516 44.7804C172.516 43.7704 172.866 42.9304 173.566 42.2304C174.256 41.5404 175.116 41.1904 176.116 41.1904C177.116 41.1904 177.966 41.5304 178.666 42.2304C179.356 42.9204 179.716 43.7704 179.716 44.7804C179.716 45.7904 179.366 46.6304 178.666 47.3304C177.976 48.0204 177.126 48.3704 176.116 48.3704C175.106 48.3704 174.266 48.0304 173.566 47.3304ZM176.116 46.9404C176.716 46.9404 177.216 46.7404 177.626 46.3304C178.036 45.9204 178.236 45.4004 178.236 44.7904C178.236 44.1804 178.036 43.6604 177.626 43.2504C177.216 42.8404 176.716 42.6404 176.116 42.6404C175.516 42.6404 175.016 42.8404 174.606 43.2504C174.196 43.6604 173.996 44.1804 173.996 44.7904C173.996 45.4004 174.196 45.9204 174.606 46.3304C175.016 46.7404 175.516 46.9404 176.116 46.9404Z" fill="white"/>
<path d="M181.047 48.1902V38.2402H182.517V48.1902H181.047Z" fill="white"/>
<path d="M188.816 41.3804H190.286V48.1904H188.816V47.3204C188.366 48.0104 187.676 48.3704 186.706 48.3704C185.136 48.3704 184.086 47.3104 184.086 45.5604V41.3804H185.556V45.4104C185.556 46.4304 186.146 46.9904 187.086 46.9904C188.126 46.9904 188.816 46.3504 188.816 45.0304V41.3804Z" fill="white"/>
<path d="M195.797 42.8004H194.107V46.0704C194.107 46.9404 194.677 46.9304 195.797 46.8704V48.1904C193.547 48.4604 192.637 47.8505 192.637 46.0605V42.7905H191.387V41.3704H192.637V39.9005L194.107 39.4604V41.3704H195.797V42.7905V42.8004Z" fill="white"/>
<path d="M197.207 40.0801C196.837 39.7001 196.837 39.1301 197.207 38.7601C197.577 38.3801 198.177 38.3801 198.547 38.7601C198.917 39.1301 198.917 39.7001 198.537 40.0801C198.157 40.4601 197.597 40.4501 197.217 40.0801H197.207ZM197.137 48.1901V41.3801H198.607V48.1901H197.137Z" fill="white"/>
<path d="M200.976 47.3304C200.286 46.6404 199.926 45.7904 199.926 44.7804C199.926 43.7704 200.276 42.9304 200.976 42.2304C201.676 41.5304 202.526 41.1904 203.526 41.1904C204.526 41.1904 205.376 41.5304 206.076 42.2304C206.776 42.9304 207.126 43.7704 207.126 44.7804C207.126 45.7904 206.776 46.6304 206.076 47.3304C205.376 48.0304 204.536 48.3704 203.526 48.3704C202.516 48.3704 201.676 48.0304 200.976 47.3304ZM203.526 46.9404C204.126 46.9404 204.626 46.7404 205.036 46.3304C205.446 45.9204 205.646 45.4004 205.646 44.7904C205.646 44.1804 205.446 43.6604 205.036 43.2504C204.626 42.8404 204.126 42.6404 203.526 42.6404C202.926 42.6404 202.426 42.8404 202.016 43.2504C201.606 43.6604 201.406 44.1804 201.406 44.7904C201.406 45.4004 201.606 45.9204 202.016 46.3304C202.426 46.7404 202.926 46.9404 203.526 46.9404Z" fill="white"/>
<path d="M214.657 44.0102V48.1902H213.187V44.1602C213.187 43.1402 212.597 42.5802 211.657 42.5802C210.617 42.5802 209.927 43.2202 209.927 44.5402V48.1902H208.457V41.3802H209.927V42.2502C210.377 41.5502 211.067 41.2002 212.037 41.2002C213.607 41.2002 214.657 42.2602 214.657 44.0102Z" fill="white"/>
<path d="M218.147 47.3301C218.147 47.8901 217.687 48.3501 217.127 48.3501C216.567 48.3501 216.107 47.8901 216.107 47.3301C216.107 46.7701 216.547 46.3101 217.127 46.3101C217.707 46.3101 218.147 46.7701 218.147 47.3301Z" fill="white"/>
</svg>
