<svg width="40" height="40" viewBox="0 0 40 40" fill="none" xmlns="http://www.w3.org/2000/svg">
<path d="M6.66667 26.3333C2.99 26.3333 0 23.3433 0 19.6667C0 15.99 2.99 13 6.66667 13C10.3433 13 13.3333 15.99 13.3333 19.6667C13.3333 23.3433 10.3433 26.3333 6.66667 26.3333ZM6.66667 14.6667C3.91 14.6667 1.66667 16.91 1.66667 19.6667C1.66667 22.4233 3.91 24.6667 6.66667 24.6667C9.42333 24.6667 11.6667 22.4233 11.6667 19.6667C11.6667 16.91 9.42333 14.6667 6.66667 14.6667Z" fill="#535353"/>
<path d="M15.4167 26.3333C11.74 26.3333 8.75 23.3433 8.75 19.6667C8.75 15.99 11.74 13 15.4167 13C19.0933 13 22.0833 15.99 22.0833 19.6667C22.0833 23.3433 19.0933 26.3333 15.4167 26.3333ZM15.4167 14.6667C12.66 14.6667 10.4167 16.91 10.4167 19.6667C10.4167 22.4233 12.66 24.6667 15.4167 24.6667C18.1733 24.6667 20.4167 22.4233 20.4167 19.6667C20.4167 16.91 18.1733 14.6667 15.4167 14.6667Z" fill="#535353"/>
<path d="M24.5827 26.3333C20.906 26.3333 17.916 23.3433 17.916 19.6667C17.916 15.99 20.906 13 24.5827 13C28.2593 13 31.2493 15.99 31.2493 19.6667C31.2493 23.3433 28.2593 26.3333 24.5827 26.3333ZM24.5827 14.6667C21.826 14.6667 19.5827 16.91 19.5827 19.6667C19.5827 22.4233 21.826 24.6667 24.5827 24.6667C27.3393 24.6667 29.5827 22.4233 29.5827 19.6667C29.5827 16.91 27.3393 14.6667 24.5827 14.6667Z" fill="#535353"/>
<path d="M33.3327 26.3333C29.656 26.3333 26.666 23.3433 26.666 19.6667C26.666 15.99 29.656 13 33.3327 13C37.0093 13 39.9993 15.99 39.9993 19.6667C39.9993 23.3433 37.0093 26.3333 33.3327 26.3333ZM33.3327 14.6667C30.576 14.6667 28.3327 16.91 28.3327 19.6667C28.3327 22.4233 30.576 24.6667 33.3327 24.6667C36.0893 24.6667 38.3327 22.4233 38.3327 19.6667C38.3327 16.91 36.0893 14.6667 33.3327 14.6667Z" fill="#535353"/>
</svg>
