<svg width="40" height="40" viewBox="0 0 40 40" fill="none" xmlns="http://www.w3.org/2000/svg">
<path d="M18.9286 4.00277C14.8731 4.07995 9.9895 4.78421 7.15311 6.48633C5.32421 7.59498 3.07545 9.85256 2.38537 13.3282C1.69528 16.8039 2.01427 20.189 2.69487 23.6683C3.37548 27.1475 4.7387 31.0424 8.5151 33.0486C12.2915 35.0549 14.8242 35.2929 20 35.2779C25.1758 35.2929 27.7085 35.0549 31.4849 33.0486C35.2613 31.0424 36.6245 27.1475 37.3051 23.6683C37.9857 20.189 38.3047 16.8039 37.6146 13.3282C36.9245 9.85256 34.6758 7.59498 32.8469 6.48633C29.1618 4.4592 25.1075 4.07038 21.0714 4.00277C20.3363 4.00766 19.6092 3.99457 18.9286 4.00277ZM24.2095 4.9384C25.7071 5.08127 29.4542 5.3717 32.2587 7.04375C35.0631 8.71581 36.3167 10.8421 36.8405 13.421C37.3642 15.9999 37.3186 19.2614 36.5929 23.3896C35.8673 27.5177 33.8366 30.9523 31.0822 32.3988C28.3278 33.8453 24.831 34.6108 20 34.5361C15.169 34.6108 11.6722 33.8453 8.91777 32.3988C6.16336 30.9523 4.13274 27.5177 3.40705 23.3896C2.68136 19.2614 2.63579 15.9999 3.15953 13.421C3.68326 10.8421 4.93686 8.71581 7.74133 7.04375C10.5458 5.3717 14.2929 5.08127 15.7905 4.9384C18.5872 4.70625 21.4479 4.68804 24.2095 4.9384ZM19.0711 5.65611C16.7722 5.68477 14.3113 5.96609 12.6271 6.32802C10.7024 6.74166 10.0443 6.88771 8.38442 7.88068C6.72457 8.87366 4.68355 10.8954 4.05726 14.0084C3.43095 17.1215 3.72064 20.1537 4.33834 23.27C4.95604 26.3862 6.19313 29.8747 9.62048 31.6716C15.3166 34.6383 24.8263 34.5202 30.3795 31.6716C33.8069 29.8747 35.044 26.3862 35.6617 23.27C36.2794 20.1537 36.569 17.1215 35.9427 14.0084C35.3164 10.8954 33.2754 8.87366 31.6156 7.88068C29.9557 6.88771 29.2976 6.74165 27.3729 6.32802C25.6887 5.96609 23.2278 5.68477 20.9289 5.65611C20.2915 5.66095 19.6613 5.64913 19.0711 5.65611ZM23.5925 7.15311C24.2175 7.21172 25.2977 7.30117 26.519 7.53644C26.6998 7.57367 26.8015 7.63214 26.7618 7.8041C24.7978 12.5676 22.7 17.3331 20.5116 22.0967C20.2166 22.7284 19.8439 22.7527 19.5421 22.2135C17.3343 17.411 15.2183 12.6066 13.2382 7.8041C13.1985 7.63214 13.3002 7.57367 13.481 7.53644C14.7023 7.30117 15.7825 7.21172 16.4075 7.15311C18.7942 6.95674 21.2437 6.94344 23.5925 7.15311ZM11.5063 8.05439C11.6182 8.05155 11.6556 8.12541 11.6516 8.2652L11.6532 8.26086V16.2764C11.6532 18.8063 12.0668 19.9928 13.1857 22.0556L18.548 31.9302C18.7311 32.2791 18.4341 32.2563 18.1114 32.2599C14.914 32.1225 12.4659 31.5009 10.4712 30.4711C8.092 29.2428 6.33782 26.3265 5.71098 22.8211C5.08414 19.3156 5.04462 16.5461 5.49701 14.3562C5.94941 12.1663 7.0322 10.3605 9.45467 8.94066C10.0587 8.58663 10.7135 8.3056 11.3761 8.08123C11.4274 8.06461 11.4709 8.05528 11.5063 8.05439ZM28.4937 8.05439C28.5291 8.05528 28.5726 8.06461 28.6239 8.08123C29.2865 8.3056 29.9413 8.58663 30.5453 8.94066C32.9678 10.3605 34.0506 12.1663 34.503 14.3562C34.9554 16.5461 34.9159 19.3156 34.289 22.8211C33.6622 26.3265 31.908 29.2428 29.5288 30.4711C27.5341 31.5009 25.086 32.1225 21.8886 32.2599C21.5659 32.2563 21.2689 32.2791 21.452 31.9302L26.8143 22.0556C27.9332 19.9928 28.3468 18.8063 28.3468 16.2764V8.26086L28.3484 8.2652C28.3444 8.12541 28.3818 8.05155 28.4937 8.05439Z" fill="#535353"/>
</svg>
