<svg width="40" height="40" viewBox="0 0 40 40" fill="none" xmlns="http://www.w3.org/2000/svg">
<path d="M39.9941 19.1772C40.0009 19.2136 40.0009 19.2509 39.9941 19.2873V19.1772Z" fill="#4F4C4D"/>
<path d="M0 19.7689C0 23.5111 8.72258 26.5516 19.4676 26.5516C30.2263 26.5516 38.9352 23.5111 38.9352 19.7689C38.9352 16.0268 30.2401 13 19.4813 13C8.72258 13 0 16.0268 0 19.7689ZM0.6879 19.7689C0.6879 16.3432 9.09404 13.5778 19.4813 13.5778C29.8549 13.5778 38.2748 16.3294 38.2748 19.7689C38.2748 23.1947 29.8686 25.96 19.4813 25.96C9.1078 25.96 0.6879 23.2084 0.6879 19.7689Z" fill="#535353"/>
<path d="M30.4885 17.4713C30.4576 17.4658 30.4258 17.4709 30.3983 17.4859C30.3707 17.501 30.3492 17.5249 30.3371 17.5539C30.2133 17.7878 28.7549 19.9615 28.4935 20.388C28.4935 20.4568 28.3972 20.388 28.3835 20.388C28.3517 20.234 28.2804 20.091 28.1767 19.9728C28.073 19.8546 27.9404 19.7654 27.7919 19.7139C27.5431 19.6148 27.273 19.5816 27.0077 19.6176C26.5357 19.7043 26.0946 19.913 25.7282 20.2229C25.1641 20.6494 24.6688 21.2135 24.0497 21.5987C23.7058 21.8188 23.238 22.0252 22.9215 21.7225C22.7794 21.5228 22.7188 21.2765 22.7521 21.0336C22.7853 20.7908 22.9099 20.5697 23.1004 20.4155H23.1967C23.1738 20.5137 23.1771 20.6161 23.206 20.7127C23.235 20.8092 23.2887 20.8965 23.3618 20.9659C23.4581 21.0462 23.5758 21.0968 23.7004 21.1114C23.8249 21.1261 23.9511 21.1042 24.0635 21.0484C24.1957 20.9807 24.309 20.881 24.393 20.7585C24.4771 20.636 24.5293 20.4945 24.545 20.3467C24.5584 20.239 24.55 20.1296 24.5203 20.0252C24.4907 19.9207 24.4403 19.8233 24.3724 19.7386C24.3044 19.6539 24.2201 19.5838 24.1245 19.5322C24.0289 19.4807 23.9239 19.4489 23.8158 19.4387C23.6243 19.4264 23.4323 19.4544 23.2523 19.5207C23.0722 19.5871 22.908 19.6904 22.7702 19.8239C22.6124 19.9555 22.4735 20.1083 22.3575 20.278C22.3575 20.278 22.2612 20.278 22.2749 20.278C22.2749 19.6864 22.041 19.3562 21.5595 19.3424C21.1505 19.3591 20.7606 19.5199 20.4589 19.7964C20.1129 20.1059 19.7867 20.4367 19.482 20.787H19.3995C19.3975 20.419 19.2978 20.0582 19.1106 19.7414C19.0751 19.6937 19.0244 19.6595 18.9669 19.6445C18.9093 19.6295 18.8484 19.6346 18.7941 19.6588C18.663 19.7191 18.5385 19.7929 18.4227 19.879C18.399 19.9134 18.3863 19.9542 18.3863 19.9959C18.3863 20.0377 18.399 20.0784 18.4227 20.1129C18.5973 20.7116 18.5634 21.352 18.3264 21.9289C18.2247 22.1875 18.0708 22.4223 17.8743 22.6188C17.6779 22.8153 17.443 22.9691 17.1845 23.0708C17.0326 23.1351 16.8636 23.147 16.7041 23.1047C16.5447 23.0623 16.4039 22.9681 16.3039 22.8369C16.1662 22.5663 16.1123 22.2608 16.149 21.9593C16.1858 21.6579 16.3116 21.3743 16.5103 21.1447C16.8971 20.663 17.4122 20.3005 17.9962 20.0991C17.9962 20.0991 18.0787 20.0991 17.9962 19.9753C17.9962 19.879 17.9136 19.7551 17.8999 19.7001C17.8999 19.5625 17.7073 19.5488 17.5284 19.5625C17.132 19.6127 16.7489 19.7388 16.4003 19.934C15.6487 20.3923 15.0797 21.0975 14.7906 21.9289C14.7236 22.1221 14.626 22.3032 14.5016 22.4655C14.3003 22.7041 14.0743 22.9208 13.8275 23.1121C13.8139 23.1325 13.8066 23.1564 13.8066 23.1809C13.8066 23.2054 13.8139 23.2293 13.8275 23.2497C13.9 23.3748 13.9878 23.4903 14.0889 23.5936C14.0889 23.5936 14.2127 23.5936 14.2402 23.5936C14.4844 23.425 14.7063 23.2263 14.9006 23.002C14.9006 23.002 14.9969 23.002 15.0245 23.002C15.086 23.2334 15.2035 23.446 15.3667 23.6211C15.5298 23.7963 15.7336 23.9286 15.96 24.0064C16.4028 24.1158 16.868 24.0934 17.2982 23.9418C17.7284 23.7902 18.1049 23.5162 18.3814 23.1534C18.6485 22.8479 18.8967 22.5262 19.1243 22.1903C19.5488 21.5967 20.043 21.0563 20.5964 20.5806C20.8303 20.4018 21.1193 20.2642 21.2568 20.3467C21.3669 20.3467 21.4082 20.5944 21.2568 20.9246C20.5964 22.1353 19.6196 23.5661 19.4408 23.9101C19.2619 24.254 19.4408 24.0201 19.4408 24.0201H20.4451C20.4665 24.021 20.4876 24.0147 20.5051 24.0023C20.5225 23.9898 20.5353 23.9719 20.5414 23.9513L22.041 21.6125C22.0508 21.8196 22.1072 22.0218 22.2061 22.2041C22.2871 22.3364 22.4002 22.4461 22.5349 22.523C22.6696 22.6 22.8215 22.6417 22.9766 22.6443C23.1955 22.6495 23.4124 22.6023 23.6094 22.5067C23.7948 22.4379 23.9706 22.3454 24.1323 22.2316H24.2148C24.1064 22.5725 24.1246 22.9411 24.2662 23.2697C24.4077 23.5982 24.663 23.8647 24.9853 24.0201C25.3516 24.1363 25.7445 24.1393 26.1126 24.0289C26.4807 23.9184 26.807 23.6996 27.049 23.401H27.1453C27.1638 23.6044 27.2456 23.7969 27.3791 23.9513C27.7781 24.3503 28.5898 24.199 29.3878 23.5661C29.963 23.1031 30.4845 22.577 30.9425 21.9977C30.9525 21.9837 30.958 21.9668 30.958 21.9495C30.958 21.9323 30.9525 21.9154 30.9425 21.9014C30.8619 21.8163 30.7745 21.7381 30.6811 21.6675C30.6811 21.6675 30.5985 21.6675 30.571 21.6675C30.0768 22.2026 29.5383 22.695 28.9613 23.1396C28.7412 23.291 28.3835 23.4148 28.2321 23.2084C28.2044 23.1553 28.1899 23.0963 28.1899 23.0364C28.1899 22.9765 28.2044 22.9175 28.2321 22.8645C28.4248 22.3829 31.4515 17.7878 31.6029 17.5126C31.7542 17.2374 31.6029 17.43 31.6029 17.43H30.4885M25.7007 23.0846C25.6285 23.0306 25.5706 22.9597 25.5323 22.8782C25.4939 22.7966 25.4761 22.7068 25.4805 22.6168C25.5314 22.0691 25.7582 21.5526 26.1272 21.1447C26.6225 20.5394 27.1728 20.2229 27.503 20.388C27.8744 20.5669 27.7506 20.9934 27.5855 21.3373V21.4061C27.5855 21.4061 27.5855 21.4749 27.6818 21.4887C27.5689 21.7276 27.4305 21.9536 27.2691 22.1628C27.1244 22.3762 26.9481 22.5664 26.7463 22.7269C26.5212 22.9452 26.2317 23.0851 25.9208 23.1259C25.8395 23.1462 25.7544 23.1462 25.6732 23.1259" fill="#535353"/>
<path d="M14.432 14.6783H13.5653C11.7079 14.8296 9.94691 15.8752 9.93315 17.4299C9.93281 17.6177 9.97094 17.8036 10.0452 17.9761C10.1194 18.1487 10.2282 18.3042 10.3648 18.4331C10.5015 18.562 10.6631 18.6615 10.8396 18.7256C11.0162 18.7897 11.204 18.8169 11.3915 18.8057C11.9093 18.7498 12.402 18.5537 12.8166 18.2386C13.2311 17.9234 13.5518 17.5011 13.7441 17.0171C13.9092 16.6181 13.5928 16.453 13.4552 16.6869C13.1934 17.0839 12.8331 17.4062 12.4096 17.6225C11.9143 17.8564 11.3915 17.8013 11.2402 17.4023C11.02 16.8383 11.4878 16.0265 12.616 15.6C14.1549 15.2056 15.7723 15.2389 17.2937 15.6963C17.2937 15.6963 17.4037 15.6963 17.2937 15.7789C16.944 15.95 16.616 16.1625 16.3169 16.4118C15.955 16.7083 15.619 17.0351 15.3125 17.3886C15.0099 17.76 14.7897 18.0902 14.5008 18.4617C14.4743 18.4724 14.4447 18.4724 14.4183 18.4617C13.7091 18.5163 13.0219 18.7328 12.4096 19.0946C12.3485 19.1319 12.3034 19.1905 12.2831 19.2591C12.2627 19.3278 12.2686 19.4015 12.2995 19.466C12.3214 19.4898 12.348 19.5088 12.3776 19.5217C12.4072 19.5347 12.4392 19.5414 12.4715 19.5414C12.5038 19.5414 12.5358 19.5347 12.5654 19.5217C12.595 19.5088 12.6216 19.4898 12.6435 19.466C13.0024 19.1881 13.4416 19.0337 13.8955 19.0258C13.4734 19.6404 13.0139 20.2286 12.5197 20.7868C12.2667 21.0787 11.9956 21.3544 11.7079 21.6123C10.5385 22.6992 9.27277 22.6854 8.81875 21.9975C8.708 21.8175 8.64936 21.6104 8.64936 21.399C8.64936 21.1877 8.708 20.9805 8.81875 20.8006C9.05822 20.3866 9.41816 20.0555 9.8506 19.8513C9.88189 19.8283 9.90732 19.7982 9.92485 19.7636C9.94238 19.7289 9.95151 19.6906 9.95151 19.6518C9.95151 19.6129 9.94238 19.5746 9.92485 19.54C9.90732 19.5053 9.88189 19.4753 9.8506 19.4523C9.78798 19.4014 9.71415 19.3661 9.63521 19.3494C9.55627 19.3326 9.47448 19.3349 9.39659 19.356C8.85013 19.4901 8.36519 19.8053 8.02079 20.2502C7.63796 20.7482 7.45627 21.3719 7.51174 21.9975C7.52056 22.2764 7.58474 22.5507 7.70054 22.8046C7.81635 23.0585 7.98147 23.2868 8.1863 23.4762C8.39113 23.6657 8.63159 23.8126 8.89369 23.9083C9.15579 24.004 9.4343 24.0466 9.71302 24.0337C10.244 24.0178 10.7652 23.8866 11.2404 23.649C11.7156 23.4114 12.1333 23.0732 12.4646 22.6579C13.4715 21.5158 14.3482 20.2653 15.0786 18.9295C15.0786 18.9295 15.0786 18.8607 15.2437 18.8469C15.7528 18.7781 16.4957 18.7093 16.9773 18.6818H17.1423C17.275 18.8324 17.4334 18.9582 17.6101 19.0533C17.664 19.0694 17.7214 19.0694 17.7752 19.0533C17.8069 19.0515 17.8379 19.0432 17.8663 19.029C17.8946 19.0148 17.9198 18.995 17.9403 18.9707C17.9593 18.9448 17.9696 18.9135 17.9696 18.8813C17.9696 18.8492 17.9593 18.8178 17.9403 18.7919C17.9403 18.7919 17.5826 18.558 17.5688 18.4892C17.8513 18.4048 18.0887 18.2118 18.2292 17.9527C18.3205 17.8159 18.3608 17.6515 18.3432 17.4881C18.3256 17.3246 18.2512 17.1726 18.1329 17.0584C17.9944 16.9623 17.8254 16.9203 17.658 16.9406C17.4906 16.9609 17.3365 17.042 17.2249 17.1685C17.0939 17.2892 16.9942 17.4399 16.9343 17.6076C16.8744 17.7754 16.8561 17.9551 16.8809 18.1315C16.8809 18.1315 16.8809 18.2141 16.8122 18.2141C16.3719 18.2141 15.9454 18.2141 15.4364 18.2828C16.0254 17.3678 16.7985 16.5853 17.7064 15.9853C17.7064 15.9853 17.7064 15.8614 17.7064 15.7789C19.2962 16.2963 20.9392 16.6332 22.6043 16.7832C23.3034 16.8073 23.9964 16.646 24.6129 16.3155C25.177 16.0128 25.4109 15.7239 25.4247 15.4349C25.4309 15.3918 25.4263 15.3477 25.4112 15.3068C25.396 15.2659 25.3709 15.2295 25.3381 15.2007C25.3053 15.172 25.2658 15.152 25.2232 15.1424C25.1807 15.1329 25.1364 15.1341 25.0945 15.146C23.4357 15.5073 21.7255 15.5679 20.0453 15.3249C18.1501 14.9619 16.2339 14.7184 14.3082 14.5957M17.2524 18.0214C17.2371 17.911 17.2506 17.7986 17.2916 17.6949C17.3326 17.5912 17.3996 17.4999 17.4863 17.4299C17.5826 17.3473 17.7202 17.3198 17.789 17.4299C17.8853 17.5124 17.789 17.705 17.789 17.8288C17.6901 17.9799 17.5377 18.0881 17.3625 18.1315C17.3625 18.1315 17.3625 18.1315 17.3625 18.0627" fill="#535353"/>
</svg>
