<svg width="40" height="40" viewBox="0 0 40 40" fill="none" xmlns="http://www.w3.org/2000/svg">
<path fill-rule="evenodd" clip-rule="evenodd" d="M23.7687 22.2925C24.0427 23.709 23.3003 24.8855 22.6834 26.0276C21.9982 27.0902 20.8673 28.0034 19.508 27.8667C16.4577 27.8211 13.4765 27.3527 10.7118 26.5186C10.5863 26.4844 10.4608 26.4042 10.392 26.2902C10.3348 26.1301 10.4151 25.9815 10.5291 25.879C13.0539 23.8341 16.0581 22.8863 19.0281 21.8921C20.136 21.5723 21.313 21.2295 22.5579 21.3896C23.0715 21.4583 23.5855 21.8126 23.7687 22.2925ZM34.1752 16.2383C35.5917 17.4034 36.8712 18.9915 36.437 20.9105C35.7287 23.7435 32.6447 25.2514 30.1886 26.2107C28.852 26.6564 27.5042 27.1136 26.042 27.2506C25.9506 27.2391 25.8021 27.2618 25.779 27.1247L25.8132 26.965C27.8923 24.623 29.4685 21.9961 30.8512 19.3343C31.4907 18.1347 32.085 16.9013 32.6332 15.6901C32.713 15.5988 32.7932 15.5531 32.8846 15.5189C33.3982 15.5642 33.7641 15.9642 34.1752 16.2383ZM14.2412 13.2226L14.1955 13.3938C11.1913 16.8091 9.21507 20.7731 7.34175 24.714C6.9763 25.0568 6.62198 24.5996 6.29069 24.451C4.62274 23.3546 3.11487 21.5838 3.54904 19.4821C4.24577 16.7408 7.06728 15.2786 9.42083 14.2851C10.8143 13.7596 12.2654 13.337 13.7959 13.097C13.956 13.0967 14.1613 13.074 14.2412 13.2226ZM29.1491 13.7707C29.3203 13.8621 29.526 13.8963 29.6289 14.0675C29.7203 14.2617 29.5376 14.3873 29.4347 14.5132C27.07 16.3635 24.3629 17.3919 21.5982 18.2944C20.1928 18.6372 18.7763 19.2541 17.2116 18.9113C16.8458 18.8199 16.5149 18.58 16.3091 18.2256C15.9207 17.1519 16.4462 16.0326 16.903 15.0959C17.5084 13.9193 18.5825 12.537 20.0673 12.5143C23.2658 12.4913 26.2815 12.9711 29.1491 13.7707ZM33.1015 13.8621C35.5234 15.1873 38.265 17.5174 37.9794 20.6245C37.6481 23.5032 34.9637 25.5136 32.5648 26.7247C25.5621 30.0717 15.7268 30.1742 8.49569 27.2502C6.05077 26.2337 3.30911 24.4859 2.2807 21.8583C1.4926 19.6994 2.45191 17.4491 4.06305 15.9527C7.43273 12.8913 11.7279 11.8406 16.1491 11.2348C20.9471 10.6521 25.9959 11.1661 30.2911 12.6398C31.2508 12.9942 32.199 13.3826 33.1015 13.8621Z" fill="#535353"/>
</svg>
