<svg width="40" height="40" viewBox="0 0 40 40" fill="none" xmlns="http://www.w3.org/2000/svg">
<path d="M19.007 29.0425C17.8132 29.0111 16.4967 28.906 15.3313 28.7492C10.3698 28.0817 6.21215 26.3804 3.89762 24.0704C2.91612 23.0909 2.29415 22.0146 2.08441 20.9329C2.0161 20.5806 2 20.408 2 20.0279C2 19.6478 2.0161 19.4752 2.08441 19.1229C2.22228 18.4118 2.54973 17.6786 3.03291 16.9991C4.12563 15.4624 6.04301 14.0943 8.55879 13.0562C12.7519 11.3261 18.2422 10.6408 23.5885 11.1801C29.8646 11.8133 35.0276 14.1036 37.0763 17.1632C38.0129 18.562 38.2424 20.0813 37.7412 21.5661C37.4519 22.4236 36.8896 23.2805 36.0981 24.0704C33.9051 26.2591 30.0457 27.9095 25.4133 28.6396C23.3415 28.9662 21.2056 29.1005 19.007 29.0425ZM21.7441 27.8877C24.2562 27.7322 26.3775 27.363 28.4447 26.7214C30.0849 26.2123 31.6138 25.5075 32.7875 24.7195C33.3791 24.3224 33.7894 23.9872 34.2535 23.5221C34.8046 22.9698 35.1602 22.4852 35.4498 21.8919C35.7737 21.2283 35.8991 20.708 35.8991 20.0279C35.8991 19.3439 35.7655 18.7959 35.4374 18.1345C35.1537 17.5625 34.7918 17.0732 34.2535 16.5337C33.4629 15.7414 32.5238 15.088 31.2826 14.4667C28.9591 13.3036 26.052 12.5426 22.8135 12.2498C21.0197 12.0876 18.9818 12.0875 17.1822 12.2496C12.6291 12.6595 8.72066 14.0111 6.30237 16.0118C5.99562 16.2656 5.44882 16.8177 5.21962 17.105C4.40011 18.1323 4.01323 19.2408 4.10138 20.3089C4.19742 21.4726 4.72147 22.4988 5.74233 23.5221C6.51562 24.2973 7.43504 24.9416 8.63074 25.5462C11.3535 26.9229 14.6992 27.712 18.6342 27.9053C19.0786 27.9272 21.311 27.9145 21.7441 27.8877ZM8.98064 24.5911C8.95906 24.5821 8.92374 24.5552 8.90216 24.5312C8.86321 24.4879 8.86288 24.4564 8.85788 20.2868L8.85284 16.0859L8.80088 16.0317C8.75174 15.9804 8.73815 15.9772 8.55084 15.9719L8.35277 15.9663V15.7015V15.4366L9.77855 15.4315L11.2043 15.4265L11.2648 15.4774L11.3254 15.5284V17.0429C11.3254 18.7069 11.3209 18.6446 11.4405 18.6446C11.5148 18.6446 11.5405 18.6137 11.9541 18.0265C13.0498 16.4713 13.6526 15.6254 13.7069 15.5666C13.8409 15.4219 13.7802 15.4277 15.1671 15.4272L16.409 15.4268L16.4564 15.4741C16.5146 15.5323 16.5365 15.6118 16.51 15.6686C16.4932 15.7046 15.9559 16.5025 14.0794 19.2777C13.8746 19.5807 13.8174 19.6794 13.8179 19.729C13.8184 19.7804 13.9517 19.9804 14.5206 20.7833C17.0348 24.3317 17.0429 24.3432 17.0506 24.415C17.0564 24.4689 17.0467 24.4988 17.0091 24.5425L16.96 24.5996L15.663 24.6049C14.3842 24.6102 14.3647 24.6097 14.2705 24.5692C14.218 24.5466 14.1531 24.5044 14.1264 24.4755C14.0996 24.4466 13.5084 23.6239 12.8125 22.6473C12.1167 21.6707 11.5333 20.8599 11.516 20.8457C11.4676 20.8056 11.3792 20.8247 11.3506 20.8814C11.3313 20.9197 11.3259 21.3195 11.3256 22.71L11.3253 24.4895L11.278 24.5445L11.2306 24.5996L10.1252 24.6035C9.51728 24.6056 9.00223 24.6001 8.98064 24.5911ZM18.8299 24.5823C18.7973 24.5679 18.7598 24.5324 18.7465 24.5034C18.7278 24.4622 18.7225 23.5288 18.7225 20.2707V16.0909L18.6651 16.0335C18.6097 15.9781 18.6014 15.9762 18.4199 15.9762H18.232V15.7015V15.4268H19.6836H21.1353L21.1993 15.484L21.2634 15.5413V20.016V24.4908L21.209 24.5452L21.1546 24.5996L20.0219 24.604C19.1147 24.6075 18.8775 24.6031 18.8299 24.5823ZM23.0489 24.5857C22.988 24.5508 22.9619 24.5071 22.9613 24.4387C22.9609 24.4041 23.2394 23.5432 23.5802 22.5256C23.921 21.508 24.463 19.8896 24.7846 18.9291C25.1063 17.9687 25.4455 16.9584 25.5385 16.6842C25.6315 16.4099 25.7076 16.1614 25.7076 16.132C25.7076 16.1027 25.6907 16.0578 25.6701 16.0323C25.6366 15.9908 25.6126 15.985 25.4396 15.9762L25.2465 15.9664L25.241 15.6966L25.2356 15.4268L26.9775 15.427C28.121 15.427 28.7446 15.4341 28.7928 15.4475C28.8331 15.4587 28.8758 15.486 28.8878 15.5083C28.9123 15.5541 29.1076 16.1316 30.0283 18.8802C31.5261 23.3516 31.8686 24.3837 31.8686 24.4258C31.8686 24.495 31.8297 24.5638 31.7772 24.5877C31.744 24.6029 31.3957 24.6095 30.6364 24.6095C29.6347 24.6095 29.5379 24.6066 29.4762 24.5752C29.4392 24.5563 29.3927 24.5187 29.3729 24.4916C29.353 24.4644 29.2008 24.0185 29.0346 23.5007C27.4507 18.5644 27.4946 18.6991 27.459 18.6594C27.4196 18.6156 27.3897 18.616 27.349 18.661C27.3167 18.6967 27.2557 18.8844 26.3946 21.5977C26.1446 22.3855 25.875 23.2331 25.7956 23.4813C25.7162 23.7295 25.6144 24.0496 25.5694 24.1926C25.4809 24.4737 25.4418 24.5407 25.3419 24.5825C25.2557 24.6185 23.1114 24.6216 23.0489 24.5858L23.0489 24.5857Z" fill="#535353"/>
</svg>
