<svg width="40" height="40" viewBox="0 0 40 40" fill="none" xmlns="http://www.w3.org/2000/svg">
<path fill-rule="evenodd" clip-rule="evenodd" d="M20.0625 1C30.6094 1 39.125 9.51562 39.125 20.0625C39.125 30.6094 30.6094 39.125 20.0625 39.125C9.51562 39.125 1 30.6094 1 20.0625C1 9.51562 9.51562 1 20.0625 1ZM20.375 2.79688L22.875 17.7188L35.2188 28.3438C36.625 25.8438 37.4062 23.0312 37.4062 19.9844C37.4062 10.5312 29.8281 2.875 20.4531 2.71875L20.375 2.79688ZM35.0625 28.5781L19.9844 23.2656L5.21875 28.8125C8.26562 33.8906 13.7344 37.25 20.0625 37.25C26.4688 37.25 32.0938 33.7344 35.0625 28.5V28.5781ZM5.0625 28.5781L17.3281 18.1094L19.75 2.79688C10.375 2.95312 2.79688 10.6094 2.79688 20.0625C2.79688 23.1875 3.65625 26.0781 5.0625 28.6562V28.5781Z" fill="#535353"/>
</svg>
