<svg width="40" height="40" viewBox="0 0 40 40" fill="none" xmlns="http://www.w3.org/2000/svg">
<path d="M19.9929 32.7676C13.2327 32.7676 7.62579 27.1607 7.62579 20.4005C7.62579 20.049 7.64194 19.7007 7.67169 19.3561L18.0195 20.0017L13.5439 23.0939C13.4833 23.1365 13.4433 23.2068 13.4433 23.2861C13.4433 23.4156 13.5484 23.5206 13.6779 23.5206H31.952C30.5468 28.8022 25.6778 32.7676 19.9929 32.7676ZM19.9929 8.03296C26.7531 8.03296 32.36 13.6404 32.36 20.4005C32.36 20.7493 32.3446 21.0953 32.315 21.4377L21.9772 20.7805L26.463 17.7067C26.5241 17.6641 26.5635 17.5939 26.5635 17.5145C26.5635 17.385 26.4589 17.28 26.33 17.28H8.03373C9.43938 11.9984 14.3079 8.03296 19.9929 8.03296ZM37.7297 21.7818L34.3462 21.5666C34.377 21.1821 34.3934 20.7929 34.3934 20.4005C34.3934 12.4472 27.9462 6 19.9929 6C13.1116 6 7.35822 10.8273 5.93286 17.28H3.27578C3.10186 17.28 2.94627 17.3626 2.84762 17.4911L2.0569 18.5828C2.02129 18.6287 2 18.6861 2 18.7485C2 18.8981 2.12074 19.0188 2.27034 19.0188L5.64055 19.2289C5.60933 19.6153 5.59282 20.0059 5.59282 20.4005C5.59282 28.3534 12.04 34.8006 19.9929 34.8006C26.8742 34.8006 32.6275 29.9734 34.0534 23.5206H36.7237C36.8981 23.5206 37.0532 23.438 37.1519 23.3096L37.9431 22.2178C37.9787 22.1719 38 22.1146 38 22.0521C38 21.9025 37.8788 21.7818 37.7297 21.7818Z" fill="#535353"/>
</svg>
