<svg width="40" height="40" viewBox="0 0 40 40" fill="none" xmlns="http://www.w3.org/2000/svg">
<path d="M19.9561 9.52556C15.2943 9.52556 10.9922 10.7626 7.82154 12.6396C4.57407 14.5617 2.52498 17.1467 2.52498 19.7381C2.52498 22.3237 4.56483 24.8804 7.7996 26.7794C10.9714 28.6413 15.2827 29.8623 19.9555 29.8623C24.6659 29.8623 28.9951 28.6437 32.1779 26.784C35.43 24.8839 37.4744 22.3254 37.4744 19.7375C37.4744 17.1432 35.4213 14.5559 32.1571 12.6327C28.9778 10.7597 24.6567 9.52556 19.9561 9.52556ZM7.5553 12.188C10.8005 10.2665 15.1978 9 19.9561 9C24.7519 9 29.1666 10.2636 32.4228 12.1816C35.847 14.199 38 16.9492 38 19.7375C38 22.5224 35.855 25.2443 32.443 27.2374C29.1857 29.1398 24.7629 30.3872 19.9561 30.3872C15.1891 30.3872 10.7831 29.1369 7.53566 27.2304C4.14092 25.2379 2 22.5189 2 19.7381C2 16.9521 4.149 14.2042 7.5553 12.188Z" fill="#535353"/>
<path fill-rule="evenodd" clip-rule="evenodd" d="M15.1147 15.8651L23.2129 17.6254L15.2025 19.298L13.4422 23.6993L11.6819 19.2096L4.28711 17.6254L11.6819 16.0407L13.3544 11.8154L15.1147 15.8651Z" fill="#535353"/>
<path fill-rule="evenodd" clip-rule="evenodd" d="M24.0057 20.002L27.4386 20.7066L24.0057 21.4984L23.3011 23.3471L22.5088 21.4106L19.3398 20.7066L22.5088 20.002L23.2128 18.2417L24.0057 20.002Z" fill="#535353"/>
<path fill-rule="evenodd" clip-rule="evenodd" d="M32.3686 20.002L35.8014 20.7066L32.3686 21.4984L31.664 23.3471L30.8722 21.4106L27.791 20.7066L30.8722 20.002L31.664 18.2417L32.3686 20.002Z" fill="#535353"/>
<path fill-rule="evenodd" clip-rule="evenodd" d="M30.1673 14.8088L33.6007 15.5128L30.1673 16.2168L29.4633 18.1538L28.6715 16.2168L25.502 15.5128L28.6715 14.8088L29.3749 13.0479L30.1673 14.8088Z" fill="#535353"/>
<path fill-rule="evenodd" clip-rule="evenodd" d="M26.9096 24.1396L30.4308 24.932L26.9973 25.636L26.205 27.4847L25.4132 25.636L22.332 24.932L25.4132 24.2274L26.205 22.467L26.9096 24.1396Z" fill="#535353"/>
<path fill-rule="evenodd" clip-rule="evenodd" d="M17.8431 24.7558L21.2765 25.5476L17.8431 26.2522L17.1385 28.1003L16.3467 26.1638L13.1777 25.5476L16.3467 24.8436L17.0507 22.9949L17.8431 24.7558Z" fill="#535353"/>
</svg>
