<svg width="40" height="40" viewBox="0 0 40 40" fill="none" xmlns="http://www.w3.org/2000/svg">
<path fill-rule="evenodd" clip-rule="evenodd" d="M30.6683 14.2204C32.726 13.3715 34.7467 11.8951 35.5772 10.022C34.8851 9.40377 31.3142 8.47182 30.1239 8.1581C28.1493 7.6506 25.9532 7.26306 23.8217 7.07851C23.4342 7.41992 23.0835 7.92742 22.7421 8.30573C22.3638 8.73019 22.0408 9.09005 21.6902 9.53295C21.3488 9.95741 20.9797 10.4095 20.6475 10.7694C20.2323 11.2308 20.14 11.4799 19.6233 11.8859L15.6372 7.06006C13.4688 7.23538 11.3004 7.64137 9.27037 8.13042L3.76172 10.0128C4.44453 11.8398 7.38802 13.9159 8.73519 14.1835C9.04892 13.5007 8.91051 13.3807 9.418 12.8548C10.3776 11.8767 12.9336 11.8028 14.2715 11.8398L19.6418 37.9989C19.9555 37.4084 21.155 30.9586 21.3857 29.759L24.9382 12.2734C25.0858 11.7475 25.132 11.8213 25.6948 11.8305C26.9313 11.8398 28.7583 12.0151 29.7456 12.6887C30.4561 13.1777 30.2715 13.6852 30.6498 14.2019L30.6683 14.2204Z" fill="#535353"/>
<path fill-rule="evenodd" clip-rule="evenodd" d="M2 5.9252L3.28258 8.76718C4.89735 8.45346 7.25029 7.40156 10.7751 6.7372C16.4775 5.65761 22.6967 5.6207 28.4175 6.70951C32.1269 7.42001 34.3045 8.42578 35.9931 8.76718L37.4048 5.94365C36.1684 5.66684 34.7289 5.09475 33.4095 4.75334C24.5882 2.45577 14.8351 2.38195 6.00461 4.73489C4.64821 5.09475 3.2549 5.63916 2.00923 5.9252H2Z" fill="#535353"/>
</svg>
