<svg width="40" height="40" viewBox="0 0 40 40" fill="none" xmlns="http://www.w3.org/2000/svg">
<path d="M20 8C10.0597 8 2 13.2138 2 19.6436C2 26.0757 10.0597 31.2919 20 31.2919C29.9403 31.2919 38 26.0781 38 19.6436C38 13.2091 29.9403 8 20 8ZM20 26.2933C18.5215 26.2933 17.315 23.3813 17.2393 19.7169C18.1288 19.795 19.0538 19.8376 20 19.8376C20.9462 19.8376 21.8712 19.795 22.7607 19.7169C22.685 23.3789 21.4785 26.2933 20 26.2933ZM17.4215 16.8072C17.8236 14.2168 18.8267 12.3788 20 12.3788C21.1733 12.3788 22.1764 14.2168 22.5785 16.8072C21.7529 16.8805 20.8918 16.9208 20 16.9208C19.1082 16.9208 18.2471 16.8805 17.4215 16.8072ZM20 9.68432C18.0697 9.68432 16.4232 12.5751 15.8152 16.6109C12.1556 16.0407 9.60074 14.7397 9.60074 13.228C9.60074 11.1889 14.2563 9.53529 20 9.53529C25.7437 9.53529 30.3993 11.1889 30.3993 13.228C30.3993 14.7397 27.8444 16.0407 24.1848 16.6109C23.5768 12.5751 21.9303 9.68432 20 9.68432ZM4.58089 19.2083C4.58089 17.2354 5.34025 15.3831 6.66264 13.7934C6.64844 13.9046 6.63898 14.0181 6.63898 14.1317C6.63898 16.618 10.3672 18.7375 15.5692 19.5182C15.5645 19.698 15.5645 19.8801 15.5645 20.0623C15.5645 24.6965 16.8632 28.6211 18.6587 29.953C10.7694 29.4775 4.58089 24.8479 4.58089 19.2083ZM21.3413 29.953C23.1368 28.6211 24.4355 24.6965 24.4355 20.0623C24.4355 19.8778 24.4332 19.698 24.4308 19.5182C29.6304 18.7375 33.361 16.6203 33.361 14.1317C33.361 14.0181 33.3516 13.9046 33.3374 13.7934C34.6597 15.3878 35.4191 17.2354 35.4191 19.2083C35.4191 24.8479 29.2306 29.4775 21.3413 29.953Z" fill="#535353"/>
</svg>
