<svg width="40" height="40" viewBox="0 0 40 40" fill="none" xmlns="http://www.w3.org/2000/svg">
<g clip-path="url(#clip0_5543_772)">
<path d="M20.5073 2C10.8444 2 3 9.82979 3 19.5073C3 29.1702 10.8444 37 20.5073 37C30.1702 37 38 29.1702 38 19.5073C38 9.82979 30.1702 2 20.5073 2ZM29.8625 32.0985C27.2433 34.041 24.0058 35.1975 20.5073 35.1975C17.0088 35.1975 13.7727 34.0425 11.1521 32.1C9.18578 30.6423 7.58858 28.7439 6.48865 26.5572C5.38873 24.3705 4.81673 21.9565 4.81854 19.5087C4.81854 14.3448 7.31521 9.76854 11.1521 6.90146C13.8555 4.88807 17.1363 3.80046 20.5071 3.8002C23.8778 3.79993 27.1588 4.88703 29.8625 6.9C31.8279 8.36223 33.4242 10.2638 34.5239 12.4528C35.6236 14.6418 36.1962 17.0576 36.196 19.5073C36.196 24.6698 33.6994 29.2475 29.8625 32.0985Z" fill="#535353"/>
<path d="M7.99285 15.4852C7.57034 16.7839 7.35718 18.1416 7.36139 19.5073C7.36139 23.0992 8.80951 26.3658 11.1516 28.74C12.2541 29.8427 13.5363 30.7496 14.9433 31.4219L7.99285 15.4852ZM31.141 11.7869C30.757 11.2489 30.3292 10.7436 29.862 10.276C29.0614 9.45829 28.1533 8.75328 27.1626 8.18042L22.601 18.7985H18.4097L13.8481 8.18042C12.859 8.75444 11.952 9.45935 11.1516 10.276C10.6844 10.7436 10.2567 11.2489 9.87264 11.7869L15.9758 25.8263L18.4724 20.1388H22.5412L25.0378 25.8263L31.141 11.7869ZM33.0208 15.4852L26.0689 31.4204C27.4758 30.7481 28.758 29.8412 29.8606 28.7385C32.292 26.2816 33.6547 22.9639 33.6522 19.5073C33.6522 18.1058 33.4364 16.7496 33.0208 15.4852Z" fill="#535353"/>
<path d="M16.8403 32.1131C17.9953 32.4514 19.2291 32.6366 20.508 32.6366C21.787 32.6366 23.0193 32.4529 24.1758 32.1131L20.508 23.7452L16.8403 32.1131ZM24.2837 6.91598C23.0966 6.54557 21.8176 6.36182 20.508 6.36182C19.1985 6.36182 17.9341 6.54702 16.7324 6.91598L20.508 15.5158L24.2837 6.91598Z" fill="#535353"/>
</g>
<defs>
<clipPath id="clip0_5543_772">
<rect width="35" height="35" fill="white" transform="translate(3 2)"/>
</clipPath>
</defs>
</svg>
