<svg width="40" height="40" viewBox="0 0 40 40" fill="none" xmlns="http://www.w3.org/2000/svg">
<path d="M38.7133 28.8C38.604 28.7133 30.6667 22.992 28.488 23.4027C27.448 23.5867 26.8533 24.296 25.66 25.716C25.468 25.9453 25.0067 26.4947 24.648 26.8853C23.8939 26.6394 23.1582 26.3399 22.4467 25.9893C18.774 24.2013 15.8067 21.234 14.0187 17.5613C13.6678 16.8499 13.3684 16.1142 13.1227 15.36C13.5147 15 14.064 14.5387 14.2987 14.3413C15.712 13.1547 16.4227 12.56 16.6067 11.5173C16.984 9.35733 11.2667 1.36533 11.2067 1.29333C10.9473 0.922761 10.6087 0.614483 10.2156 0.390804C9.8224 0.167125 9.38442 0.0336375 8.93333 0C6.616 0 0 8.58267 0 10.028C0 10.112 0.121333 18.6507 10.6507 29.3613C21.3507 39.8787 29.888 40 29.972 40C31.4187 40 40 33.384 40 31.0667C39.9667 30.6172 39.834 30.1806 39.6115 29.7887C39.389 29.3967 39.0822 29.059 38.7133 28.8Z" fill="#FF4200"/>
</svg>
