<svg width="650" height="154" viewBox="0 0 650 154" fill="none" xmlns="http://www.w3.org/2000/svg">
<path d="M70.7987 86.0187C70.8002 86.3247 70.604 86.5982 70.312 86.6939L62.6636 89.2156C62.6126 89.2326 62.5616 89.2434 62.5107 89.248C62.1074 89.2882 61.735 88.973 61.7319 88.545L61.5542 53.4598V53.3563L61.3982 22.6067C61.3951 22.0968 60.8728 21.7569 60.4062 21.9593L41.1385 30.3123C40.6703 30.5147 40.1465 30.1717 40.1465 29.6618V23.6991C40.1465 23.4535 40.2732 23.2263 40.4818 23.0965L69.4498 5.10508C69.9211 4.81305 70.5314 5.14989 70.5329 5.70613L70.6797 50.2475V50.2707L70.7585 73.8663L70.7987 86.0187Z" fill="white"/>
<path d="M91.4199 80.2153L83.9816 82.6056C83.6402 82.7153 83.2894 82.4619 83.2879 82.1018L83.1256 46.5871V46.5825L82.9356 4.48859C82.9279 2.62672 84.0465 0.908534 85.7956 0.270397C86.2746 0.0957978 86.7891 0 87.3222 0C88.084 0 88.8086 0.194687 89.4452 0.53925C90.8652 1.30872 91.7119 2.83376 91.7135 4.44842C91.7274 17.7705 91.7413 31.0957 91.7536 44.4178V44.4672C91.766 56.2133 91.7784 67.9624 91.7907 79.7084C91.7876 79.9402 91.6393 80.1442 91.4199 80.2153Z" fill="#F6921E"/>
<path d="M82.9435 149.023C82.928 151.442 84.6941 153.465 86.9639 153.588C87.0813 153.595 87.2003 153.598 87.3193 153.598C87.5 153.598 87.6777 153.59 87.8539 153.576C90.0433 153.395 91.709 151.401 91.7136 149.064C91.7368 133.581 91.7599 118.095 91.7831 102.612C91.7862 100.455 90.3631 98.5927 88.3792 98.1585C85.7448 97.5807 83.2726 99.7098 83.254 102.573L82.9435 149.023Z" fill="#F6921E"/>
<path d="M134.925 119.957C134.917 121.129 134.732 123.184 133.672 125.461C132.504 127.966 130.886 129.565 129.908 130.257C122.073 135.795 113.611 140.387 105.424 145.393C104.951 145.682 104.344 145.344 104.344 144.789V92.7339C107.388 91.6399 110.343 90.5027 113.202 89.33V128.162C113.202 128.687 113.754 129.03 114.225 128.799L125.32 123.358C125.56 123.241 125.713 123.001 125.717 122.736L126.315 92.6489L126.501 83.2715L126.509 82.9146C126.519 82.4387 126.984 82.108 127.436 82.2533L128.08 82.4603L134.421 84.4999C134.713 84.5941 134.913 84.8645 134.913 85.172C134.914 85.7932 134.917 86.9505 134.919 88.4832C134.936 96.144 134.965 113.21 134.925 119.957Z" fill="white"/>
<path d="M71.3663 101.907V144.789C71.3663 145.344 70.7591 145.682 70.2863 145.393C62.0987 140.387 53.6375 135.795 45.8022 130.257C44.8241 129.565 43.2064 127.966 42.0383 125.461C40.9783 123.184 40.7929 121.129 40.7867 119.957C40.7775 118.48 40.7713 116.507 40.7682 114.247C40.7651 111.552 40.7651 108.449 40.7666 105.288C43.5819 105.279 46.547 105.16 49.6388 104.933L49.8103 113.59L49.9926 122.736C49.9988 123.001 50.1517 123.241 50.3897 123.358L61.4868 128.799C61.958 129.03 62.5081 128.687 62.5081 128.162V103.463C65.3944 103.024 68.3518 102.505 71.3663 101.907Z" fill="white"/>
<path d="M134.886 87.649C132.142 89.0644 129.269 90.455 126.283 91.8162C122.123 93.709 117.741 95.5415 113.169 97.2921C110.289 98.3954 107.335 99.4661 104.311 100.498C100.706 101.728 97.0041 102.904 93.2216 104.017C92.7302 104.16 92.2404 104.304 91.7506 104.445C88.8782 105.271 86.0275 106.042 83.2061 106.756C79.1841 107.771 75.2193 108.674 71.3349 109.46C68.3311 110.07 65.3753 110.611 62.4766 111.082C58.1024 111.796 53.8579 112.354 49.7803 112.757C46.6638 113.066 43.6446 113.286 40.7367 113.414C18.7573 114.394 3.14688 110.268 0.490809 101.234C-3.48789 87.7015 16.8923 67.8003 55.471 53.8617C23.3927 65.8535 7.72509 82.5532 11.0626 93.9083C13.1361 100.959 24.448 104.514 40.7367 104.454C43.5519 104.445 46.517 104.326 49.6073 104.098C53.6926 103.8 57.9989 103.31 62.4766 102.631C65.3629 102.192 68.3203 101.673 71.3349 101.075C77.7487 99.8014 84.4221 98.1682 91.2222 96.1688C95.7293 94.8431 100.104 93.4139 104.311 91.9012C107.355 90.8088 110.311 89.6716 113.169 88.4988C117.89 86.5628 122.339 84.531 126.468 82.4404C127.001 82.17 127.528 81.8996 128.049 81.6277C148.006 71.2367 159.943 59.5184 157.406 50.8889C155.654 44.9263 147.296 41.4636 134.909 40.5721C134.911 40.0993 134.911 39.6327 134.909 39.1738C153.987 39.0702 167.264 43.2282 169.693 51.4946C172.683 61.6646 158.497 75.492 134.886 87.649Z" fill="#F6921E"/>
<path d="M134.943 40.1702C134.948 50.113 134.919 63.0071 134.913 65.7204C134.913 66.0278 134.713 66.2982 134.421 66.3925L127.436 68.6391C126.983 68.7843 126.519 68.4537 126.509 67.9778L125.952 39.9616L125.935 39.1087L125.717 28.1568C125.713 27.891 125.56 27.6515 125.32 27.5341L114.225 22.0937C113.754 21.8619 113.202 22.205 113.202 22.7303V72.6966C113.202 73.0041 113.004 73.2776 112.711 73.3718L108.177 74.8289L105.271 75.7621C104.813 75.9105 104.344 75.569 104.344 75.0869V6.1032C104.344 5.5485 104.951 5.21012 105.424 5.49906C113.611 10.5053 122.073 15.0974 129.908 20.6351C130.886 21.3273 132.504 22.9265 133.672 25.4312C134.732 27.7087 134.917 29.7637 134.925 30.9349C134.937 32.8586 134.942 35.6244 134.943 38.7703C134.945 39.2292 134.945 39.6958 134.943 40.1702Z" fill="white"/>
<path d="M429.774 101.444C357.891 101.444 286.005 101.444 214.121 101.444C213.562 101.444 212.999 101.478 212.445 101.429C211.029 101.3 210.227 100.463 210.156 99.0352C210.118 98.2565 210.122 97.4715 210.155 96.6913C210.209 95.3578 210.989 94.5111 212.296 94.3287C212.571 94.2901 212.854 94.2994 213.134 94.2963C213.693 94.2917 214.252 94.2932 214.81 94.2932C358.076 94.2932 501.343 94.2932 644.609 94.2932C645.279 94.2932 645.95 94.3025 646.621 94.2948C647.321 94.2886 647.934 94.5296 648.493 94.9298C649.02 95.3068 649.365 95.7966 649.369 96.4657C649.377 97.4144 649.403 98.3646 649.357 99.3118C649.315 100.165 648.853 100.767 648.053 101.096C647.534 101.31 647.01 101.477 646.434 101.449C645.876 101.422 645.317 101.444 644.757 101.444C573.097 101.444 501.436 101.444 429.774 101.444Z" fill="#1A1A1A"/>
<path d="M361.382 123.601C361.352 123.921 361.352 124.254 361.287 124.576C360.901 126.487 360.487 128.392 360.108 130.304C359.816 131.782 359.064 132.988 358.012 134.034C357.61 134.432 357.148 134.696 356.612 134.91C354.969 135.56 353.257 135.761 351.52 135.764C343.807 135.781 336.094 135.78 328.381 135.763C326.981 135.759 325.601 135.559 324.269 135.08C322.472 134.432 321.652 133.071 321.466 131.276C321.38 130.447 321.463 129.616 321.632 128.782C322.24 125.775 322.979 122.797 323.51 119.771C324.022 116.863 325.873 115.039 328.773 114.361C329.697 114.145 330.641 114.046 331.599 114.046C339.648 114.055 347.696 114.057 355.745 114.043C356.707 114.041 357.642 114.185 358.559 114.431C361.076 115.104 362.574 117.042 362.309 119.797C362.298 119.908 362.29 120.021 362.265 120.129C361.666 122.742 362.199 122.34 359.719 122.362C357.372 122.382 355.023 122.373 352.676 122.362C351.85 122.359 351.85 122.34 351.661 121.47C351.534 120.881 351.377 120.702 350.808 120.622C350.423 120.568 350.029 120.557 349.64 120.555C345.002 120.551 340.362 120.572 335.723 120.543C333.696 120.531 333.543 120.937 333.209 122.661C332.837 124.577 332.366 126.475 331.948 128.383C331.76 129.248 332.038 129.67 332.882 129.783C333.324 129.842 333.773 129.854 334.22 129.856C338.803 129.86 343.387 129.86 347.97 129.856C348.416 129.856 348.863 129.82 349.308 129.783C349.72 129.747 350.04 129.525 350.3 129.217C350.485 128.998 350.604 128.743 350.546 128.451C350.471 128.072 350.142 128.127 349.886 128.125C347.539 128.116 345.19 128.119 342.843 128.117C342.397 128.117 341.948 128.125 341.502 128.106C341.045 128.088 340.918 127.929 341.014 127.475C341.242 126.382 341.474 125.291 341.731 124.205C341.908 123.451 341.928 123.454 342.757 123.431C343.036 123.423 343.316 123.429 343.596 123.429C348.962 123.429 354.328 123.425 359.693 123.436C360.241 123.434 360.81 123.31 361.382 123.601Z" fill="white"/>
<path d="M446.984 114.549C445.847 114.217 444.705 114.039 443.521 114.046C439.61 114.061 435.698 114.052 431.787 114.052C427.765 114.052 423.744 114.061 419.718 114.047C418.363 114.042 417.021 114.189 415.774 114.69C414.076 115.373 412.605 116.352 412.103 118.29C411.906 119.046 411.633 119.78 411.457 120.538C410.951 122.712 410.463 124.889 410.001 127.071C409.805 127.997 409.667 128.938 409.55 129.878C409.459 130.6 409.51 131.323 409.643 132.043C409.885 133.347 410.602 134.253 411.8 134.835C413.244 135.54 414.788 135.758 416.356 135.762C424.178 135.786 432.001 135.786 439.824 135.764C441.562 135.758 443.266 135.481 444.893 134.814C445.425 134.594 445.868 134.304 446.244 133.866C447.206 132.746 447.919 131.498 448.22 130.047C448.802 127.267 449.337 124.478 449.933 121.703C450.122 120.826 450.23 119.953 450.278 119.06C450.397 116.816 448.748 115.062 446.984 114.549ZM439.431 123.125C439.118 124.65 438.768 126.167 438.414 127.684C438.217 128.531 437.902 128.78 437.024 128.842C436.692 128.865 436.355 128.853 436.021 128.853C431.446 128.854 426.869 128.854 422.293 128.853C421.959 128.853 421.622 128.866 421.288 128.843C420.404 128.783 420.134 128.455 420.199 127.542C420.211 127.375 420.231 127.209 420.267 127.046C420.622 125.413 420.996 123.783 421.335 122.147C421.481 121.439 421.896 121.084 422.592 121.031C423.093 120.994 423.595 120.966 424.096 120.965C426.273 120.958 428.448 120.962 430.624 120.962C432.966 120.963 435.312 120.945 437.654 120.968C439.618 120.988 439.821 121.237 439.431 123.125Z" fill="white"/>
<path d="M405.632 118.377C405.59 116.507 404.649 115.234 402.893 114.582C401.721 114.148 400.512 114.044 399.271 114.046C390.053 114.055 380.834 114.051 371.615 114.052C371.224 114.052 370.831 114.054 370.44 114.058C370.057 114.064 369.815 114.258 369.728 114.63C369.502 115.61 369.266 116.585 369.064 117.567C368.361 121.008 367.685 124.455 366.972 127.895C366.485 130.242 365.946 132.58 365.446 134.925C365.312 135.56 365.471 135.76 366.109 135.763C368.959 135.775 371.808 135.778 374.657 135.766C375.6 135.761 375.618 135.719 375.819 134.72C376.116 133.244 376.401 131.765 376.712 130.293C376.877 129.516 376.982 129.404 377.678 129.4C380.471 129.384 383.263 129.398 386.058 129.386C386.554 129.384 386.904 129.581 387.185 129.972C387.834 130.879 388.509 131.769 389.143 132.686C389.747 133.559 390.414 134.38 391.083 135.202C391.449 135.653 391.85 135.778 392.381 135.777C395.566 135.767 398.75 135.772 401.936 135.767C402.102 135.767 402.282 135.767 402.428 135.701C402.576 135.636 402.673 135.474 402.588 135.298C402.519 135.149 402.426 135.01 402.327 134.879C400.859 132.932 399.388 130.987 397.732 128.797C398.914 128.803 399.807 128.666 400.652 128.396C402.621 127.764 404.106 126.602 404.569 124.454C404.884 122.984 405.229 121.52 405.515 120.044C405.623 119.5 405.643 118.932 405.632 118.377ZM395.09 121.107C394.982 121.651 394.87 122.2 394.703 122.728C394.518 123.309 394.099 123.654 393.466 123.681C393.188 123.695 392.908 123.695 392.63 123.695C388.328 123.695 384.03 123.697 379.73 123.694C379.394 123.694 379.058 123.695 378.725 123.661C378.48 123.638 378.302 123.451 378.331 123.216C378.449 122.278 378.591 121.342 378.742 120.407C378.784 120.149 379.011 120.063 379.241 120.052C379.744 120.032 380.246 120.026 380.748 120.024C382.758 120.022 384.768 120.024 386.779 120.024C388.902 120.024 391.023 120.022 393.146 120.026C393.535 120.026 393.929 120.015 394.316 120.064C394.918 120.143 395.204 120.535 395.09 121.107Z" fill="white"/>
<path d="M535.44 114.794C534.989 114.574 534.529 114.4 534.028 114.293C533.147 114.106 532.263 114.047 531.369 114.049C526.735 114.054 522.101 114.051 517.469 114.051H510.769C508.314 114.051 505.856 114.047 503.401 114.052C501.953 114.055 501.817 113.884 501.534 115.486C501.185 117.459 500.777 119.424 500.377 121.39C499.462 125.865 498.533 130.339 497.611 134.812C497.452 135.588 497.558 135.763 498.285 135.766C501.132 135.778 503.978 135.778 506.826 135.764C507.548 135.761 507.662 135.667 507.846 134.924C508.126 133.788 508.342 132.635 508.617 131.5C508.963 130.072 508.694 130.128 510.346 130.128C516.375 130.128 522.404 130.129 528.433 130.126C529.047 130.126 529.661 130.091 530.273 130.095C531.53 130.103 532.681 129.669 533.846 129.287C534.275 129.145 534.635 128.882 534.906 128.504C535.592 127.552 536.219 126.583 536.517 125.416C536.999 123.527 537.379 121.617 537.665 119.689C537.722 119.306 537.735 118.912 537.746 118.522C537.801 116.775 537.002 115.545 535.44 114.794ZM526.957 122.49C526.689 123.946 526.463 124.153 524.97 124.157C520.343 124.174 515.714 124.163 511.084 124.162C510.918 124.162 510.749 124.162 510.585 124.129C510.335 124.08 510.198 123.89 510.236 123.655C510.369 122.831 510.505 122.005 510.686 121.192C510.867 120.396 510.914 120.369 511.851 120.365C514.193 120.355 516.534 120.361 518.876 120.361C521.052 120.361 523.226 120.358 525.4 120.364C525.788 120.364 526.18 120.375 526.565 120.424C526.873 120.464 527.072 120.705 527.072 120.997C527.073 121.495 527.049 122 526.957 122.49Z" fill="white"/>
<path d="M495.47 114.05C494.991 116.248 494.62 118.211 494.129 120.144C493.441 122.847 493.08 125.611 492.493 128.332C492.151 129.914 491.752 131.459 490.896 132.875C490.353 133.774 489.685 134.431 488.713 134.842C487.139 135.509 485.481 135.749 483.807 135.756C476.267 135.79 468.727 135.784 461.185 135.759C459.787 135.755 458.415 135.508 457.097 134.978C455.464 134.321 454.666 133.066 454.469 131.402C454.37 130.577 454.416 129.741 454.605 128.91C455.158 126.462 455.68 124.009 456.19 121.55C456.596 119.585 456.966 117.613 457.352 115.643C457.395 115.424 457.44 115.206 457.495 114.99C457.718 114.115 457.757 114.083 458.596 114.05C458.762 114.044 458.931 114.049 459.098 114.049C461.556 114.049 464.013 114.047 466.471 114.052C466.803 114.052 467.142 114.058 467.465 114.123C467.585 114.148 467.749 114.338 467.76 114.464C467.783 114.735 467.744 115.018 467.69 115.286C466.949 118.947 466.198 122.606 465.454 126.266C465.366 126.702 465.275 127.141 465.249 127.583C465.216 128.099 465.487 128.42 466.017 128.5C466.456 128.567 466.905 128.587 467.35 128.587C471.539 128.593 475.73 128.59 479.918 128.59C480.198 128.59 480.478 128.599 480.756 128.578C482.014 128.485 482.245 128.29 482.486 127C483.251 122.892 484.237 118.831 485.158 114.756C485.3 114.129 485.354 114.061 486.074 114.057C488.253 114.041 490.431 114.049 492.61 114.049C493.491 114.05 494.376 114.05 495.47 114.05Z" fill="white"/>
<path d="M429.334 101.513C357.37 101.513 285.404 101.504 213.44 101.55C210.656 101.552 210.016 100.387 210.038 98.236C210.07 94.982 210.739 94.1167 213.454 94.0873C214.243 94.0781 215.031 94.0858 215.821 94.0858C359.13 94.0858 502.441 94.0858 645.749 94.0858C649.221 94.0858 650.994 96.9906 649.424 100.093C648.747 101.431 647.529 101.641 646.218 101.629C645.436 101.621 644.656 101.518 643.875 101.518C572.362 101.513 500.847 101.513 429.334 101.513Z" fill="#F6921E"/>
<path d="M648.717 42.9468L646.705 56.1499C645.293 65.4067 642.223 71.9071 637.497 75.6555C632.768 79.4025 625.075 81.2767 614.42 81.2767H604.258C595.154 81.2767 588.678 79.9278 584.834 77.23C580.987 74.5338 579.064 69.9772 579.064 63.5587C579.064 61.3446 579.276 58.8739 579.7 56.1483L581.711 42.9452C583.122 33.6899 586.192 27.188 590.92 23.4395C595.647 19.6911 603.304 17.8184 613.89 17.8184H624.052C633.085 17.8184 639.559 19.1673 643.476 21.8635C647.393 24.5613 649.351 29.0901 649.351 35.4498C649.352 37.7242 649.141 40.2212 648.717 42.9468ZM629.558 44.3096C629.769 42.4925 629.928 41.2008 630.034 40.4344C630.139 39.668 630.193 38.9155 630.193 38.177C630.193 35.3957 629.399 33.5076 627.812 32.5125C626.223 31.519 623.241 31.0215 618.867 31.0215H615.057C609.622 31.0215 606.041 31.8605 604.313 33.5338C602.583 35.2088 601.296 38.8012 600.449 44.308L598.861 54.8705C598.437 57.3705 598.226 59.4425 598.226 61.0881C598.226 63.7581 599.02 65.589 600.607 66.5826C602.195 67.5761 605.14 68.0736 609.445 68.0736H613.255C618.759 68.0736 622.374 67.2361 624.105 65.5612C625.834 63.8863 627.121 60.3233 627.968 54.872L629.558 44.3096Z" fill="white"/>
<path d="M275.471 18.5229L268.21 61.8375C266.024 74.798 257.28 81.2783 241.98 81.2783H231.441C223.789 81.2783 218.208 80.2276 214.696 78.1231C211.183 76.0202 209.426 72.5529 209.426 67.7213C209.426 67.0399 209.484 66.2287 209.602 65.2908C209.719 64.353 209.817 63.6005 209.894 63.0319L211.298 54.9323H231.206C231.206 54.9323 230.072 62.2995 229.91 63.9219C229.865 64.3746 229.917 62.2639 229.917 62.7754C229.917 63.2868 229.917 63.6283 229.917 63.7983C229.917 66.6413 231.829 68.0613 235.656 68.0613H239.755C242.252 68.0613 244.088 67.5498 245.259 66.5269C246.43 65.5041 247.209 63.7704 247.601 61.3261L254.744 18.5229H275.471Z" fill="white"/>
<path d="M338.684 80.6894L319.58 80.5905L317.767 71.6288L290.507 71.8266L285.029 80.7188L265.723 80.7281L300.71 18.4471L324.403 18.4316L338.684 80.6894ZM315.419 58.265L310.309 35.7741L299.984 58.2758L315.419 58.265Z" fill="white"/>
<path d="M408.337 18.6992L378.529 81.2784H349.851L339.059 18.6992H358.074L366.254 58.6021L389.425 18.6992H408.337Z" fill="white"/>
<path d="M433.847 19.0127L423.824 81.2767H403.889L413.912 19.0127H433.847Z" fill="white"/>
<path d="M574.56 43.3686L572.604 56.4079C571.23 65.6199 568.279 72.0678 563.748 75.7513C559.218 79.4365 551.769 81.2783 541.406 81.2783H504.34L513.504 18.4998H550.57C559.356 18.4998 565.654 19.8378 569.464 22.5155C573.274 25.1917 575.178 29.6973 575.178 36.0292C575.178 38.2171 574.972 40.6631 574.56 43.3686ZM555.924 44.5769C556.336 42.0444 556.542 39.943 556.542 38.2727C556.542 35.5101 555.769 33.625 554.226 32.616C552.681 31.6102 549.814 31.1049 545.629 31.1049H529.669L524.212 68.6685H540.171C545.456 68.6685 548.94 67.8202 550.623 66.1206C552.304 64.4225 553.557 60.7821 554.38 55.1965L555.924 44.5769Z" fill="white"/>
<path d="M502.751 43.3686L500.795 56.4079C499.421 65.6199 496.47 72.0678 491.94 75.7513C487.41 79.4365 479.96 81.2783 469.597 81.2783H432.531L441.695 18.4998H478.761C487.547 18.4998 493.845 19.8378 497.655 22.5155C501.466 25.1917 503.369 29.6973 503.369 36.0292C503.369 38.2171 503.162 40.6631 502.751 43.3686ZM484.114 44.5769C484.526 42.0444 484.732 39.943 484.732 38.2727C484.732 35.5101 483.959 33.625 482.416 32.616C480.871 31.6102 478.004 31.1049 473.819 31.1049H457.859L452.402 68.6685H468.361C473.646 68.6685 477.13 67.8202 478.812 66.1206C480.494 64.4225 481.747 60.7821 482.57 55.1965L484.114 44.5769Z" fill="white"/>
</svg>
