<svg width="40" height="40" viewBox="0 0 40 40" fill="none" xmlns="http://www.w3.org/2000/svg">
<path d="M39.9999 3.3741V31.8875C39.9999 32.3304 39.9125 32.7693 39.7432 33.1785C39.5735 33.5878 39.3248 33.9598 39.0116 34.2733C38.6985 34.5865 38.3265 34.8352 37.9168 35.0045C37.5076 35.1742 37.069 35.2613 36.6258 35.2613C36.1826 35.2613 35.7441 35.1742 35.3344 35.0045C34.9251 34.8352 34.5532 34.5865 34.24 34.2733C33.9268 33.9598 33.6781 33.5878 33.5084 33.1785C33.3391 32.7693 33.2517 32.3304 33.2517 31.8875L33.2756 11.4766L5.73641 39.0158C5.10621 39.6458 4.25151 40 3.36029 40C2.4691 40 1.61437 39.6458 0.984205 39.0158C0.35401 38.3854 0 37.5308 0 36.6397C0 35.7485 0.35401 34.8937 0.984205 34.2636L28.5234 6.7244L8.11252 6.74816C7.21767 6.74816 6.35945 6.39267 5.7267 5.75992C5.09391 5.12714 4.73846 4.26895 4.73846 3.3741C4.73846 2.47924 5.09391 1.62101 5.7267 0.988266C6.35945 0.355483 7.21767 2.91489e-05 8.11252 2.91489e-05H36.6258C37.0694 -0.00181903 37.5089 0.0842381 37.9192 0.253128C38.3295 0.422051 38.7022 0.670515 39.0157 0.984201C39.3295 1.29789 39.5779 1.67055 39.7469 2.08074C39.9156 2.4909 40.0016 2.9305 39.9999 3.3741Z" fill="#FF4200"/>
</svg>
