<svg width="278" height="278" viewBox="0 0 278 278" fill="none" xmlns="http://www.w3.org/2000/svg">
<g clip-path="url(#clip0_5806_2)">
<path d="M149.245 191.671L106.82 234.097C106.82 234.097 106.82 234.098 106.819 234.098C106.819 234.098 106.819 234.099 106.818 234.099C89.274 251.644 60.726 251.645 43.18 234.099C34.68 225.599 30 214.298 30 202.279C30 190.261 34.68 178.962 43.177 170.462C43.178 170.461 43.179 170.46 43.18 170.459L85.605 128.033C91.462 122.175 91.462 112.677 85.604 106.82C79.747 100.963 70.249 100.963 64.391 106.82L21.966 149.246C21.963 149.249 21.96 149.253 21.957 149.256C7.798 163.42 0 182.251 0 202.279C0 222.312 7.801 241.146 21.967 255.312C36.589 269.933 55.794 277.244 75 277.244C94.206 277.244 113.412 269.933 128.032 255.312C128.033 255.312 128.033 255.31 128.033 255.31L170.458 212.884C176.315 207.027 176.315 197.529 170.457 191.671C164.601 185.814 155.104 185.814 149.245 191.671Z" fill="white"/>
<path d="M277.278 75C277.278 54.967 269.476 36.133 255.31 21.967C226.067 -7.27499 178.486 -7.27398 149.245 21.967C149.244 21.969 149.242 21.97 149.241 21.972L106.817 64.395C100.959 70.252 100.959 79.751 106.817 85.608C109.747 88.538 113.585 90.002 117.424 90.002C121.262 90.002 125.102 88.537 128.03 85.608L170.454 43.185C170.455 43.183 170.457 43.182 170.459 43.18C188.003 25.636 216.551 25.635 234.097 43.18C242.596 51.68 247.278 62.981 247.278 75C247.278 87.018 242.598 98.317 234.1 106.817L234.097 106.82L191.672 149.246C185.815 155.103 185.815 164.601 191.673 170.459C194.602 173.388 198.441 174.853 202.279 174.853C206.118 174.853 209.957 173.388 212.886 170.459L255.311 128.033C255.314 128.03 255.317 128.026 255.32 128.023C269.479 113.859 277.278 95.028 277.278 75Z" fill="white"/>
<path d="M85.6064 191.671C88.5354 194.6 92.3744 196.065 96.2124 196.065C100.051 196.065 103.89 194.6 106.819 191.671L191.671 106.819C197.529 100.962 197.529 91.464 191.671 85.606C185.814 79.749 176.316 79.749 170.458 85.606L85.6064 170.457C79.7484 176.316 79.7484 185.814 85.6064 191.671Z" fill="white"/>
</g>
<defs>
<clipPath id="clip0_5806_2">
<rect width="277.279" height="277.279" fill="white"/>
</clipPath>
</defs>
</svg>
