<svg width="40" height="40" viewBox="0 0 40 40" fill="none" xmlns="http://www.w3.org/2000/svg">
<g clip-path="url(#clip0_5809_1051)">
<path d="M31.6665 0H8.45802C6.56785 0 4.9082 1.55495 4.9082 3.39551V37.7278C4.9082 38.3439 5.07968 38.8574 5.35603 39.2541C5.68653 39.7284 6.21868 40.0002 6.78931 40C7.32882 40 7.90323 39.7599 8.43368 39.3068L18.8171 30.4907C19.1378 30.2168 19.5985 30.0598 20.0774 30.0598C20.5562 30.0598 21.0159 30.2168 21.3375 30.4915L31.6863 39.3054C32.2186 39.7599 32.7534 40.0002 33.292 40.0002C34.2027 40.0002 35.0905 39.2977 35.0905 37.728V3.39551C35.0905 1.55495 33.5566 0 31.6665 0Z" fill="#D12A29"/>
</g>
<defs>
<clipPath id="clip0_5809_1051">
<rect width="40" height="40" fill="white"/>
</clipPath>
</defs>
</svg>
