<svg width="40" height="40" viewBox="0 0 40 40" fill="none" xmlns="http://www.w3.org/2000/svg">
<path d="M31.2977 0H8.7021C6.71076 0 5.01953 1.60607 5.01953 3.68257V37.0939C5.02539 39.7295 8.24456 40.9662 10.0747 39.1161L18.6875 30.5057C19.3777 29.7856 20.6221 29.7856 21.3123 30.5057L29.9251 39.1161C31.756 40.9669 34.9748 39.7283 34.9803 37.0939V3.68257C34.9803 1.60607 33.289 0 31.2977 0ZM32.6363 37.094C32.6334 37.652 31.9398 37.8361 31.5809 37.4572C29.8591 35.7328 24.949 30.8241 22.9712 28.8499C21.4154 27.2228 18.5867 27.2223 17.0316 28.8468C15.6654 30.2104 12.9911 32.8839 10.883 34.9915L8.43044 37.4429C8.07705 37.8179 7.37472 37.6927 7.3634 37.1152V3.68257C7.3634 2.93391 7.97024 2.34394 8.7021 2.34394H31.2976C32.0284 2.34394 32.6363 2.93297 32.6363 3.68257V37.094Z" fill="#616161"/>
</svg>
