<svg width="300" height="300" viewBox="0 0 300 300" fill="none" xmlns="http://www.w3.org/2000/svg">
<rect width="300" height="300" rx="150" fill="#222944"/>
<path d="M104.841 206.671L104.746 206.762C104.624 206.902 104.494 207.051 104.355 207.205C107.421 208.322 109.58 209.305 111.841 209.895C126.091 213.613 140.513 216.377 155.161 218.054C170.177 219.774 185.151 220.372 200.096 217.634C209.276 215.952 218.256 213.278 225.174 206.775C238.977 193.8 252.529 180.546 265.87 167.095C271.917 160.998 276.767 153.835 280.765 146.17C288.237 131.85 289.323 117.196 283.125 102.118C276.619 86.2994 265.172 75.02 250.801 66.4169C250.652 66.3265 250.503 66.2388 250.355 66.1511C236.716 58.0689 221.895 52.9528 206.581 49.2904C196.606 46.9064 186.489 45.1204 175.444 42.8613C182.069 47.5363 187.984 51.2013 193.311 55.5839C199.189 60.4157 203.972 66.0023 207.394 72.4978L207.396 72.5005C209.337 76.1921 210.839 80.176 211.856 84.4816C212.753 88.2901 213.09 91.9126 212.692 95.3411C212.692 95.3517 212.689 95.3624 212.687 95.3756C212.294 98.7403 211.195 101.919 209.228 104.896C209.223 104.904 209.217 104.914 209.212 104.922C208.27 106.347 207.128 107.724 205.769 109.055C203.794 110.99 201.835 112.941 199.879 114.897L199.876 114.899L104.841 206.671Z" fill="#D33434"/>
<path d="M195.173 93.334L195.268 93.2436C195.39 93.1027 195.52 92.9539 195.658 92.7998C192.592 91.6835 190.434 90.7001 188.173 90.1101C173.923 86.392 159.501 83.6279 144.853 81.9509C129.837 80.2313 114.863 79.6333 99.9175 82.3708C90.7382 84.0531 81.7579 86.7268 74.8402 93.2303C61.0366 106.205 47.4853 119.46 34.1436 132.91C28.0966 139.007 23.2467 146.17 19.249 153.835C11.7765 168.155 10.6908 182.809 16.8891 197.887C23.3954 213.706 34.8417 224.985 49.2134 233.588C49.362 233.679 49.5107 233.766 49.6593 233.854C63.2983 241.936 78.1185 247.052 93.4325 250.715C103.408 253.099 113.525 254.885 124.57 257.144C117.944 252.469 112.03 248.804 106.703 244.421C100.825 239.589 96.0419 234.003 92.6202 227.507L92.6176 227.505C90.6771 223.813 89.1747 219.829 88.158 215.524C87.2607 211.715 86.9236 208.093 87.3218 204.664C87.3218 204.653 87.3244 204.643 87.3271 204.63C87.72 201.265 88.8189 198.086 90.786 195.11C90.7913 195.102 90.7966 195.091 90.8019 195.083C91.7442 193.658 92.8857 192.282 94.2448 190.95C96.2198 189.015 98.1788 187.065 100.135 185.108L100.138 185.106L195.173 93.334Z" fill="white"/>
</svg>
